<svg id="Camada_1" data-name="Camada 1" xmlns="http://www.w3.org/2000/svg" viewBox="0 0 300 300"><defs><style>.cls-1{fill:#fff;}.cls-2{fill:none;stroke:#000;stroke-miterlimit:10;stroke-width:10px;}</style></defs><rect class="cls-1" x="5" y="5" width="290" height="290"/><path d="M290,10V290H10V10H290M300,0H0V300H300V0Z"/><rect class="cls-1" x="205" y="30" width="66" height="45"/><path d="M266,35V70H210V35h56m10-10H200V80h76V25Z"/><rect class="cls-1" x="205" y="94" width="66" height="45"/><path d="M266,99v35H210V99h56m10-10H200v55h76V89Z"/><rect class="cls-1" x="205" y="158" width="66" height="45"/><path d="M266,163v35H210V163h56m10-10H200v55h76V153Z"/><rect class="cls-1" x="205" y="222" width="66" height="45"/><path d="M266,227v35H210V227h56m10-10H200v55h76V217Z"/><rect class="cls-1" x="29" y="30" width="154" height="111"/><path d="M178,35V136H34V35H178m10-10H24V146H188V25Z"/><line class="cls-2" x1="24" y1="179" x2="189" y2="179"/><line class="cls-2" x1="24" y1="200" x2="189" y2="200"/><line class="cls-2" x1="24" y1="221" x2="143" y2="221"/></svg>